# xmcd
#
# Track frame offsets:
#  150
#  11372
#  48835
#  65452
#  88090
#  112177
#  140297
#  159112
#  190567
#  209292
#
# Disc length: 2953 seconds
#
# Revision: 0
# Processed by: cddbd v1.4PL0 Copyright (c) Steve Scherf et al.
# Submitted via: AltoMP3_Maker 3.0
#
DISCID=790b870a
DTITLE=Nhac Tien Chien 6 - Tinh Khuc Bat Tu
DYEAR=1900
DGENRE=
TTITLE0=Hon Vong Phu 1
TTITLE1=Hon Vong Phu 2
TTITLE2=Hon Vong Phu 3
TTITLE3=Co Lai Do
TTITLE4=Tieng Coi Trong Suong Dem
TTITLE5=Loi Nguoi Ra Di
TTITLE6=Lanh Lung
TTITLE7=Trau Cau
TTITLE8=Mo Hoa
TTITLE9=Nhac Em Diu
EXTD=
EXTT0=
EXTT1=
EXTT2=
EXTT3=
EXTT4=
EXTT5=
EXTT6=
EXTT7=
EXTT8=
EXTT9=
PLAYORDER=
